<svg xmlns="http://www.w3.org/2000/svg" viewBox="0 0 1600 900">
  <!-- 8-bit ampersand (QuiverAI/Arrow source) wrapped verbatim and positioned
       in the hero's right quadrant. The <g> transform only translates+scales the
       whole group; the shape coordinates are unchanged from the source asset. -->
  <style type="text/css">.cls-0 {fill:#D71F10;}</style>
  <g transform="translate(840 150) scale(5)">
    <polygon class="cls-0" points="103.6 16.6 103.6 16.6 103.6 10.5 101.6 10.5 101.6 6.9 97.6 6.9 97.6 21.7 93.9 21.7 93.9 24.3 91.4 24.3 91.4 26.8 83.8 26.8 83.8 24.3 87.5 24.3 87.5 17.9 91.4 17.9 91.4 10.5 87.6 10.5 87.6 6.9 83.7 6.9 83.7 3.3 93.9 3.3 94.3 3.3 94.3 0 78.7 0 78.7 3.3 72.5 3.3 72.5 6.9 67.3 6.9 67.3 21.7 72.6 21.7 72.6 24.2 75 24.3 75 26.7 83.7 26.7 83.7 30.4 76.2 30.4 76.2 34 67.3 34 67.3 37.4 63.5 37.4 63.5 41.6 59.9 41.6 59.9 46.9 56.1 48.3 56.1 54.5 52.5 54.5 52.5 76.6 56.2 76.6 56.2 85.8 59.9 85.8 59.9 65.6 63.5 65.6 63.5 61.9 67.1 61.9 67.2 58.1 72.5 58.2 72.5 54.4 87.6 54.5 87.6 50.7 91.4 50.7 91.4 49.5 95.2 49.5 95.2 46.9 98.9 46.9 98.9 42.9 101.6 42.9 101.6 37.4 103.6 37.4 103.6 34 107.1 34 107.1 16.6"/>
    <rect class="cls-0" x="93.9" y="3.3" width="3.7" height="3.6"/>
    <rect class="cls-0" x="56.2" y="14.2" width="3.7" height="3.6"/>
    <path class="cls-0" d="m103.6 69.3v-3.7h-2v-3.7h-2.7v-3.7h-3.8v-3.8h-7.5v3.8h8.4v3.7h1.7v3.7h1.2v3.7h2.7v16.5h-2.7v4h-3.8v3.7h-3.7v3.5h-3.8v3.8h-3.8v3.8h-31.3v-3.8h-5v-3.8h-3.2v-3.5h-3.7v-7.6h-2v-11.7h2v-16h4.4v-3.7h2.5v-3.8h-10.2v-3.8h-2.4v-1.3h-2.6v-8.2h-3.7v-13.2h3.7v-6.3h5.1v-3.7h18.7v-3.7h-23.9v3.7h-7.5v3.7h-2.5v3.8h-5v5h-4.3v22.8h4.3v4.9h7.5v3.8h10.2v3.7h-6.3v3.7h-4v3.7h-3.7v3.6h-3.7v8.8h-4.3v15.3h4.3v7.5h3.7v4.8h3.7v3.7h7.7v3.7h3.7v2.5h27.5v-6.2h16.4v-3.6h3.8v-1.3h3.9v-3.6h3.8v-3.7h3.7v-3.8h3.8v-3.5h2.7v-3.7h2v-4h3.5v-16.5h-3.5z"/>
    <polygon class="cls-0" points="87.6 69.3 83.7 69.3 83.7 65.6 72.6 65.6 72.6 69.3 67.3 69.3 67.3 74.2 63.5 74.2 63.5 81.7 67.3 81.7 67.3 89.8 72.5 89.8 72.5 93.5 83.7 93.5 83.7 89.8 87.6 89.8 87.6 85.8 91.4 85.8 91.4 74.2 87.6 74.2"/>
    <rect class="cls-0" x="59.9" y="85.8" width="3.7" height="3.8"/>
    <rect class="cls-0" x="63.5" y="89.8" width="3.8" height="3.6"/>
    <polygon class="cls-0" points="59.9 17.9 59.9 30.4 56.2 30.4 56.2 34 47.5 34 47.5 30.4 44.9 30.4 44.9 26.7 48.8 26.7 48.8 21.7 41.3 21.7 41.3 24.2 37.3 24.2 37.3 37.4 41.3 37.4 41.3 41.6 56.1 41.6 56.1 37.4 59.9 37.4 59.9 34 63.5 34 63.5 17.9"/>
  </g>
</svg>
