<svg xmlns="http://www.w3.org/2000/svg" viewBox="0 0 150 54">
<!-- SVG created with Arrow, by QuiverAI (https://quiver.ai) -->
  <style type="text/css">.cls-0 {fill:#082525;}
.cls-1 {fill:#D31F11;}</style>
  <path class="cls-0" d="m81.3 47.7c-2.3-0.5-3.8-0.7-3.8-3.5v-42.9c0-0.3-0.7-0.9-0.9-0.9l-12.3 3.2v2.5l1.4 0.3c2.1 0.5 3.1 1 3.1 4v10.8c-1.9-1.6-4.7-2.4-7.9-2.4-9.5 0-16.4 7.3-16.4 17.5 0 8.3 4.8 16.7 14.9 16.7 4.3 0 7.5-1.6 9.8-5.2l1 4.5c0.1 0.5 0.7 0.4 1.2 0.3l9.9-2.2v-2.4-0.3zm-12.4-3.5c-1.2 2-3.4 3.4-6.2 3.4-5.7 0-8.7-5.6-8.7-12.7 0-6.6 2.7-12.1 8.2-12.1 3.3 0 6.6 2.2 6.7 6.6v14.8z"/>
  <path class="cls-0" d="m99.4 18.8c-9.9 0-17 7.4-17 17.2 0 8.4 5.1 17 16.9 17 6.8 0 11.6-2.5 15-9.2l-2.1-1.7c-2.2 3.2-4.9 5-9.7 5-6.6 0-11.1-5-11.1-12.8h20.8c1.2 0 1.7-0.6 1.7-1.8 0-6.6-4-13.7-14.5-13.7zm-7.9 12.3c0.4-4.5 2.6-9 7.2-9 4.2 0 6 3.1 6 7.9v1.1h-13.2z"/>
  <path class="cls-0" d="m137.2 19.6h11.3v2.4c-2.5 0.4-3.4 1.8-4.3 4l-9.6 26.4h-5.3l-11.1-25.9c-1.1-2.5-2.2-4-4.8-4.5v-2.5h17.3v2.5c-2.6 0.4-3.5 1.1-3.3 3 0 0.8 0.4 1.7 0.8 2.9l6 14.6 5.3-14c0.4-1.1 0.7-2.2 0.7-3.2 0-2-1-2.9-3-3.2v-2.5z"/>
  <path class="cls-1" d="m34.3 24.7c4-0.8 7.4-4.2 7.4-10.3 0-5.1-2.6-13.6-8.7-13.5-3.8 0-8.1 3.1-8.2 7 0 3.2 2.4 6.1 5.5 6.1 2.7 0 5-2.2 5-5 0-3.1-2.4-6-6.2-5.9 0.9-0.7 1.9-1.3 3.9-1.3 3.4-0.1 5.8 2 5.8 6.1 0 1.8-0.7 3.4-2.2 4.3-3.9 2.9-8.1 3.6-11.2 5.8-4 2.6-6.8 6.1-6.8 11.9 0 4.6 2 12.6 9 12.6 4.3 0.1 7.6-1.9 7.6-5.7 0-2.9-2.5-5.6-5.8-5.6-3 0-5.5 2.6-5.5 5.4 0 2.4 1.6 4.5 3.7 5.3-4.3-0.1-6.3-4.5-6.3-7.5 0-4.2 3.7-7.9 9.5-7.9 5.8-0.1 9.1 3.7 9.3 8.6 0.2 6.5-6.2 13.3-14.5 13.3s-13.1-7-13.1-13.7c0-3.8 1.1-6.7 4.7-9.2-4.2 0.5-9-3.6-9-9.5 0-5.1 4.5-8.3 8.1-8.3s6 1.6 6 5.7c0 2.6-1.4 4.8-3.8 4.8-1.7 0-3.5-1.3-3.5-3.2 0-1.4 1.1-2.3 2.3-1.8-0.5-0.7-1.2-1.1-2.3-1.1-1.6 0-3.7 1.5-3.7 4.1 0 2.4 1.9 4.4 4.7 4.4 2.6 0.1 6.9-2 6.9-6.8 0-4.6-3.1-7.1-7.2-7.1-5.4-0.1-14.1 5.6-14.1 11.5v1.2c0.2 5.6 5.3 8.6 9.7 8.5 1 0 1.6-0.2 2.1-0.4h-0.2c-4.8 3.4-9.7 7.3-9.7 13.8 0.2 5.3 3.6 11.4 12.1 11.4 6.1 0.1 14.7-1.9 18.8-4.8 3.3-2.3 6.5-6 6.5-11.7-0.1-4.4-3-9.3-6.6-11.5z"/>
</svg>